# xmcd
#
# Track frame offsets: 
#        150
#        15688
#        35778
#        55805
#        79878
#        101268
#        127658
#        143945
#        162235
#        212395
#        249370
#        265580
#
# Disc length: 3965 seconds
#
# Revision: 6
# Processed by: cddbd v1.5.2PL0 Copyright (c) Steve Scherf et al.
# Submitted via: ExactAudioCopy v0.99pb5
#
DISCID=940f7b0c
DTITLE=Various Artist - Smooth Grooves - A Sensual Collection,  Vol. 8
DYEAR=1996
DGENRE=Soul
TTITLE0=The Jones Girls - Who Can I Run To
TTITLE1=The Emotions - Don't Ask My Neighbor
TTITLE2=Robert Wintersl - Magic Man
TTITLE3=Atlantic Starr - Let's Get Closer
TTITLE4=Miki Howard - Come Share My Love
TTITLE5=Levert - (Pop,Pop,Pop,Pop) Goes My Mind
TTITLE6=Larry Graham - When We Get Married
TTITLE7=The Nights - Country Girl (You're My Everything)
TTITLE8=Millie Jackson - (If Loving You Is Wrong) I Don't Want To Be R
TTITLE8=ight
TTITLE9=Patti LaBelle - If You Don't Know Me By Now
TTITLE10=Black Ice - Blind Over You
TTITLE11=Herbie Hancock - Stars In Your Eyes
EXTD=CD Title:  Smooth Grooves  A Sensual Collection  Vol 8\nMy Name: 
EXTD=Todd Montgomery
EXTT0=
EXTT1=
EXTT2=
EXTT3=
EXTT4=
EXTT5=
EXTT6=
EXTT7=
EXTT8=
EXTT9=
EXTT10=
EXTT11=
PLAYORDER=
